<svg width="38" height="29" fill="none" xmlns="http://www.w3.org/2000/svg"><path d="M5.673 25.15a2.869 2.869 0 01-2.875 2.876C1.166 28.026 0 26.705 0 25.151a2.869 2.869 0 012.875-2.875c1.632 0 2.798 1.32 2.798 2.875zm0-10.8a2.869 2.869 0 01-2.875 2.874C1.166 17.224 0 15.904 0 14.35a2.869 2.869 0 012.875-2.875c1.632 0 2.798 1.321 2.798 2.875zm10.801 10.8a2.869 2.869 0 01-2.875 2.876 2.869 2.869 0 01-2.875-2.875c0-1.632 1.243-2.875 2.875-2.875 1.554 0 2.875 1.32 2.875 2.875zm0-10.8a2.869 2.869 0 01-2.875 2.874 2.868 2.868 0 01-2.875-2.875c0-1.632 1.243-2.875 2.875-2.875 1.554.078 2.875 1.321 2.875 2.875zm21.526 0a2.868 2.868 0 01-2.875 2.874 2.869 2.869 0 01-2.876-2.875c0-1.632 1.244-2.875 2.876-2.875 1.554.078 2.875 1.321 2.875 2.875zm0-10.725a2.869 2.869 0 01-2.875 2.876 2.869 2.869 0 01-2.876-2.876A2.869 2.869 0 0135.125.75 2.869 2.869 0 0138 3.625zM27.198 25.15a2.869 2.869 0 01-2.875 2.876c-1.632 0-2.875-1.243-2.875-2.875s1.243-2.875 2.875-2.875a2.869 2.869 0 012.875 2.875zm0-10.8a2.869 2.869 0 01-2.875 2.874c-1.632 0-2.875-1.243-2.875-2.875s1.243-2.875 2.875-2.875a2.869 2.869 0 012.875 2.875zm0-10.725a2.869 2.869 0 01-2.875 2.876c-1.632 0-2.875-1.244-2.875-2.876S22.847.75 24.4.75c1.554 0 2.797 1.243 2.797 2.875z" fill="#211700"/></svg>