<svg width="85" height="87" fill="none" xmlns="http://www.w3.org/2000/svg"><path d="M71.888 48.065c-2.418 0-4.383-2.046-4.383-4.563V24.034c0-2.517 1.965-4.563 4.383-4.563s4.383 2.046 4.383 4.563v19.468c0 2.517-1.965 4.563-4.383 4.563z" fill="url(#paint0_linear)"/><path d="M71.888 28.597a4.228 4.228 0 01-2.119-.57L36.017 8.559c-2.119-1.224-2.886-4-1.71-6.205C35.484.148 38.15-.65 40.27.574l33.75 19.468c2.119 1.224 2.886 4 1.71 6.205-.811 1.506-2.302 2.35-3.843 2.35z" fill="url(#paint1_linear)"/><path d="M4.39 28.597c-1.54 0-3.038-.852-3.835-2.35-1.176-2.205-.409-4.98 1.71-6.205L36.017.574c2.119-1.224 4.785-.426 5.961 1.78 1.177 2.205.41 4.98-1.709 6.205L6.517 28.027c-.68.387-1.41.57-2.126.57z" fill="url(#paint2_linear)"/><path d="M38.136 48.065a4.23 4.23 0 01-2.119-.57L2.265 28.026c-2.119-1.225-2.886-4-1.71-6.206 1.176-2.205 3.843-3.004 5.962-1.78l33.752 19.47c2.119 1.224 2.886 4 1.71 6.205-.811 1.506-2.302 2.35-3.843 2.35z" fill="url(#paint3_linear)"/><path d="M38.136 87c-2.419 0-4.384-2.046-4.384-4.563V43.502c0-2.517 1.965-4.563 4.384-4.563 2.418 0 4.383 2.046 4.383 4.563v38.935c0 2.517-1.965 4.563-4.383 4.563z" fill="url(#paint4_linear)"/><path d="M38.143 87c-1.542 0-3.04-.852-3.836-2.35-1.176-2.205-.409-4.98 1.71-6.205l33.752-19.468c2.119-1.224 4.785-.426 5.962 1.78 1.176 2.205.409 4.98-1.71 6.205L40.27 86.43c-.68.387-1.41.57-2.126.57z" fill="url(#paint5_linear)"/><path d="M38.136 87a4.23 4.23 0 01-2.119-.57L2.265 66.962c-2.119-1.224-2.886-4-1.71-6.205 1.176-2.206 3.843-3.004 5.962-1.78l33.752 19.468c2.119 1.224 2.886 4 1.71 6.205-.811 1.506-2.302 2.35-3.843 2.35z" fill="url(#paint6_linear)"/><path d="M4.383 67.532C1.965 67.532 0 65.487 0 62.97V43.502c0-2.517 1.965-4.563 4.383-4.563 2.419 0 4.384 2.046 4.384 4.563V62.97c0 2.517-1.965 4.562-4.384 4.562z" fill="url(#paint7_linear)"/><defs><linearGradient id="paint0_linear" x1="71.889" y1="43.503" x2="71.889" y2="24.035" gradientUnits="userSpaceOnUse"><stop stop-color="#C6F523"/><stop offset=".9" stop-color="#AFE63A"/></linearGradient><linearGradient id="paint1_linear" x1="71.889" y1="24.035" x2="37.514" y2="5.736" gradientUnits="userSpaceOnUse"><stop stop-color="#AFE63A"/><stop offset=".9" stop-color="#81C36D"/></linearGradient><linearGradient id="paint2_linear" x1="38.136" y1="4.567" x2="3.762" y2="22.866" gradientUnits="userSpaceOnUse"><stop stop-color="#81C36D"/><stop offset=".8" stop-color="#61AFB4"/></linearGradient><linearGradient id="paint3_linear" x1="4.384" y1="24.035" x2="38.759" y2="42.334" gradientUnits="userSpaceOnUse"><stop stop-color="#61AFB4"/><stop offset=".9" stop-color="#42A0DA"/></linearGradient><linearGradient id="paint4_linear" x1="38.136" y1="43.503" x2="38.136" y2="82.438" gradientUnits="userSpaceOnUse"><stop stop-color="#42A0DA"/><stop offset=".8" stop-color="#3B84BB"/></linearGradient><linearGradient id="paint5_linear" x1="71.889" y1="62.97" x2="37.514" y2="81.269" gradientUnits="userSpaceOnUse"><stop stop-color="#386D9B"/><stop offset=".7" stop-color="#3B84BB"/></linearGradient><linearGradient id="paint6_linear" x1="38.136" y1="82.438" x2="3.762" y2="64.139" gradientUnits="userSpaceOnUse"><stop offset=".3" stop-color="#3B84BB"/><stop offset=".9" stop-color="#366FA5"/></linearGradient><linearGradient id="paint7_linear" x1="4.384" y1="62.97" x2="4.384" y2="43.503" gradientUnits="userSpaceOnUse"><stop stop-color="#366FA5"/><stop offset="1" stop-color="#366998"/></linearGradient></defs></svg>